<svg xmlns="http://www.w3.org/2000/svg" width="2000" height="1152" fill="none" viewBox="0 0 2000 1152">
  <g clip-path="url(#clip0)">
    <g clip-path="url(#clip1)">
      <path stroke="#3D3C41" stroke-linecap="round" stroke-linejoin="round" stroke-width="4" d="M14.791 683.891c113.373-38.736 105.815 191.369 255.089 224.94s190.844-201.425 258.868-268.567c68.023-67.141 98.256-373.097 211.629-352.438 113.372 20.659 170.059 227.658 264.533 253.482 94.48 25.823 113.38 197.087 202.18 323.623 88.81 126.536 170.06 142.029 281.55 116.206 111.48-25.823 141.71-286.917 194.62-297.246 52.91-10.33 100.15 114.177 145.49 142.583 45.35 28.406 58.58 154.663 154.95 154.663"/>
      <path stroke="#5E5CE6" stroke-linecap="round" stroke-linejoin="round" stroke-width="4" d="M12.613 1048.45c87.413-35 159.295-248.413 263.595-284.285 55.59-19.12 100.124 18.092 149.812 75.913 49.688 57.82 39.961 82.788 151.709 127.364 92.218 36.788 116.339-359.814 206.703-344.576C874.796 638.103 916.591 161.27 1012 201.074c95.4 39.804 114.46-63.108 204.14 131.932 89.68 195.041 172.54-259.586 285.12-299.39 112.57-39.804 141.9 382.671 195.32 366.749 53.43-15.922 101.53 285.119 147.33 328.904 45.79 43.785 58.78-115.27 156.09-115.27"/>
      <path fill="url(#paint0_linear)" d="M276.208 764.165c-104.3 35.872-176.182 249.285-263.595 284.285v86.32H2000V613.999c-97.31 0-110.3 159.055-156.09 115.27-45.8-43.784-93.9-344.826-147.33-328.904-53.42 15.922-82.75-406.553-195.32-366.749-112.58 39.804-195.44 494.431-285.12 299.391-89.68-195.041-108.74-92.129-204.14-131.933-95.409-39.804-137.204 437.03-227.568 421.792S669.947 1004.23 577.729 967.442c-111.748-44.576-102.021-69.543-151.709-127.364s-94.222-95.033-149.812-75.913z"/>
      <g>
        <path fill="#EBEBF5" fill-opacity=".3" d="M203.824 1022.07h-4.914v3.19c.214-.3.532-.54.952-.73.42-.19.872-.29 1.358-.29.774 0 1.404.16 1.89.49.485.31.83.73 1.036 1.24.214.51.322 1.04.322 1.61 0 .68-.126 1.28-.378 1.81s-.64.95-1.162 1.26c-.514.31-1.153.46-1.918.46-.98 0-1.774-.25-2.38-.75-.607-.51-.976-1.18-1.106-2.02h1.246c.121.53.378.95.77 1.25.392.29.886.44 1.484.44.737 0 1.292-.22 1.666-.65.373-.45.56-1.04.56-1.77s-.187-1.29-.56-1.68c-.374-.4-.924-.6-1.652-.6-.495 0-.929.12-1.302.36-.364.24-.63.56-.798.97h-1.204v-5.71h6.09v1.12zM405.28 1022.12v-1.16h2.632v10.12h-1.288v-8.96h-1.344zm4.82 3.8c0-1.61.261-2.86.784-3.75.523-.91 1.437-1.36 2.744-1.36 1.297 0 2.207.45 2.73 1.36.523.89.784 2.14.784 3.75 0 1.63-.261 2.9-.784 3.81-.523.9-1.433 1.35-2.73 1.35-1.307 0-2.221-.45-2.744-1.35-.523-.91-.784-2.18-.784-3.81zm5.782 0c0-.81-.056-1.5-.168-2.06-.103-.57-.322-1.03-.658-1.37-.327-.35-.803-.52-1.428-.52-.635 0-1.12.17-1.456.52-.327.34-.546.8-.658 1.37-.103.56-.154 1.25-.154 2.06 0 .84.051 1.54.154 2.11.112.57.331 1.03.658 1.37.336.35.821.52 1.456.52.625 0 1.101-.17 1.428-.52.336-.34.555-.8.658-1.37.112-.57.168-1.27.168-2.11zM616.473 1022.12v-1.16h2.632v10.12h-1.288v-8.96h-1.344zm11.274-.05h-4.914v3.19c.215-.3.532-.54.952-.73.42-.19.873-.29 1.358-.29.775 0 1.405.16 1.89.49a2.6 2.6 0 011.036 1.24c.215.51.322 1.04.322 1.61 0 .68-.126 1.28-.378 1.81s-.639.95-1.162 1.26c-.513.31-1.153.46-1.918.46-.98 0-1.773-.25-2.38-.75-.607-.51-.975-1.18-1.106-2.02h1.246c.121.53.378.95.77 1.25.392.29.887.44 1.484.44.737 0 1.293-.22 1.666-.65.373-.45.56-1.04.56-1.77s-.187-1.29-.56-1.68c-.373-.4-.924-.6-1.652-.6-.495 0-.929.12-1.302.36-.364.24-.63.56-.798.97h-1.204v-5.71h6.09v1.12zM826.767 1030.06c1.185-.95 2.114-1.73 2.786-2.34.672-.61 1.236-1.25 1.694-1.91.466-.68.7-1.33.7-1.98 0-.61-.15-1.08-.448-1.43-.29-.35-.761-.53-1.414-.53-.635 0-1.13.2-1.484.6-.346.4-.532.92-.56 1.59h-1.232c.037-1.05.354-1.86.952-2.43.597-.57 1.367-.85 2.31-.85.961 0 1.722.27 2.282.8.569.53.854 1.26.854 2.2 0 .77-.234 1.53-.7 2.26-.458.73-.98 1.38-1.568 1.94a42.98 42.98 0 01-2.254 1.93h4.816v1.06h-6.734v-.91zm8.207-4.14c0-1.61.261-2.86.784-3.75.522-.91 1.437-1.36 2.744-1.36 1.297 0 2.207.45 2.73 1.36.522.89.784 2.14.784 3.75 0 1.63-.262 2.9-.784 3.81-.523.9-1.433 1.35-2.73 1.35-1.307 0-2.222-.45-2.744-1.35-.523-.91-.784-2.18-.784-3.81zm5.782 0c0-.81-.056-1.5-.168-2.06-.103-.57-.322-1.03-.658-1.37-.327-.35-.803-.52-1.428-.52-.635 0-1.12.17-1.456.52-.327.34-.546.8-.658 1.37-.103.56-.154 1.25-.154 2.06 0 .84.051 1.54.154 2.11.112.57.331 1.03.658 1.37.336.35.821.52 1.456.52.625 0 1.101-.17 1.428-.52.336-.34.555-.8.658-1.37.112-.57.168-1.27.168-2.11zM1037.96 1030.06c1.19-.95 2.11-1.73 2.79-2.34.67-.61 1.23-1.25 1.69-1.91.47-.68.7-1.33.7-1.98 0-.61-.15-1.08-.45-1.43-.29-.35-.76-.53-1.41-.53-.64 0-1.13.2-1.49.6-.34.4-.53.92-.56 1.59H1038c.04-1.05.36-1.86.95-2.43.6-.57 1.37-.85 2.31-.85.97 0 1.73.27 2.29.8.57.53.85 1.26.85 2.2 0 .77-.23 1.53-.7 2.26-.46.73-.98 1.38-1.57 1.94-.59.55-1.34 1.19-2.25 1.93h4.81v1.06h-6.73v-.91zm14.66-7.99h-4.91v3.19c.21-.3.53-.54.95-.73.42-.19.87-.29 1.36-.29.77 0 1.4.16 1.89.49.48.31.83.73 1.03 1.24.22.51.32 1.04.32 1.61 0 .68-.12 1.28-.37 1.81a2.9 2.9 0 01-1.17 1.26c-.51.31-1.15.46-1.91.46-.98 0-1.78-.25-2.38-.75-.61-.51-.98-1.18-1.11-2.02h1.25c.12.53.37.95.77 1.25.39.29.88.44 1.48.44.74 0 1.29-.22 1.67-.65.37-.45.56-1.04.56-1.77s-.19-1.29-.56-1.68c-.38-.4-.93-.6-1.66-.6-.49 0-.92.12-1.3.36-.36.24-.63.56-.8.97h-1.2v-5.71h6.09v1.12zM1886.08 1023.51c.06-.86.39-1.53.99-2.02.6-.48 1.37-.72 2.33-.72.63 0 1.18.11 1.63.35.47.22.82.53 1.05.92.25.39.37.83.37 1.33 0 .58-.17 1.08-.51 1.5-.32.42-.75.69-1.28.81v.07c.6.15 1.08.44 1.44.88.35.44.53 1.01.53 1.72 0 .54-.12 1.02-.36 1.45-.25.42-.61.75-1.1.99-.48.24-1.07.36-1.75.36-.99 0-1.8-.25-2.43-.77-.64-.52-.99-1.26-1.07-2.21h1.24c.06.56.29 1.02.68 1.37.39.36.92.54 1.57.54s1.15-.17 1.48-.51c.35-.34.52-.79.52-1.33 0-.7-.23-1.2-.7-1.51-.47-.31-1.17-.46-2.11-.46h-.32v-1.07h.33c.86-.01 1.51-.15 1.95-.42.44-.28.66-.71.66-1.28 0-.5-.17-.9-.49-1.19-.32-.3-.78-.45-1.38-.45-.58 0-1.04.15-1.4.45-.35.29-.56.7-.63 1.2h-1.24zm8.27 2.41c0-1.61.26-2.86.78-3.75.53-.91 1.44-1.36 2.75-1.36 1.3 0 2.21.45 2.73 1.36.52.89.78 2.14.78 3.75 0 1.63-.26 2.9-.78 3.81-.52.9-1.43 1.35-2.73 1.35-1.31 0-2.22-.45-2.75-1.35-.52-.91-.78-2.18-.78-3.81zm5.78 0c0-.81-.05-1.5-.17-2.06-.1-.57-.32-1.03-.65-1.37-.33-.35-.81-.52-1.43-.52-.64 0-1.12.17-1.46.52-.32.34-.54.8-.66 1.37-.1.56-.15 1.25-.15 2.06 0 .84.05 1.54.15 2.11.12.57.34 1.03.66 1.37.34.35.82.52 1.46.52.62 0 1.1-.17 1.43-.52.33-.34.55-.8.65-1.37.12-.57.17-1.27.17-2.11z"/>
      </g>
    </g>
  </g>
  <defs>
    <clipPath id="clip0">
      <path fill="#fff" d="M0 0h2000v1152H0z"/>
    </clipPath>
    <clipPath id="clip1">
      <path fill="#fff" d="M0 0h2011v1149H0z" transform="translate(-11)"/>
    </clipPath>
    <linearGradient id="paint0_linear" x1="1006.31" x2="1006.31" y1="30.969" y2="1596.49" gradientUnits="userSpaceOnUse">
      <stop stop-color="#5E5CE6" stop-opacity=".1"/>
      <stop offset=".999" stop-opacity="0"/>
    </linearGradient>
  </defs>
</svg>
