<svg xmlns="http://www.w3.org/2000/svg" width="278" height="100" fill="none" viewBox="0 0 278 100">
  <g clip-path="url(#clip0)">
    <g filter="url(#filter0_i)">
      <path stroke="#A9A5A5" d="M46.45 42.377l.078-.118-.075-.12-6.276-9.945c-.048-.102-.045-.254.008-.435.038-.128.094-.25.146-.343h5.14l4.42 6.32.184.264.185-.263 4.038-5.752.019-.027.01-.03c.039-.115.315-.512 1.133-.512h4.239c.158.035.328.116.409.225.039.05.057.115.049.178-.007.078-.047.194-.166.35-.544.715-4.574 6.802-6.514 9.746l-.08.121.081.121 6.929 10.36c.026.158.026.367-.037.53a.413.413 0 01-.139.194.467.467 0 01-.284.078h-4.711s-.025-.001-.08-.023a1.07 1.07 0 01-.208-.115c-.171-.117-.397-.32-.655-.659-.537-.706-3.063-4.126-4.26-5.75l-.188-.254-.18.26-4.262 6.195-.008.013-.003.006c-.003.002-.018.02-.064.048a1.331 1.331 0 01-.302.122c-.289.084-.752.157-1.456.157h-3.59c-.197 0-.359-.07-.414-.184-.055-.113-.07-.404.373-1.015.901-1.244 4.719-7.017 6.511-9.743v0z"/>
    </g>
    <path fill="#16C784" d="M.65 53.54a.867.867 0 01-.58-.223.842.842 0 01-.227-.574V32.035a.77.77 0 01.226-.573.867.867 0 01.582-.223h15.086c.237 0 .43.074.581.223a.77.77 0 01.226.573v2.995a.842.842 0 01-.226.574.793.793 0 01-.581.223H5.432v4.3h9.594c.237 0 .43.085.581.255a.77.77 0 01.227.574v2.771a.841.841 0 01-.227.574.793.793 0 01-.581.223H5.432v4.428h10.563c.237 0 .43.075.582.223a.77.77 0 01.226.574v2.994a.842.842 0 01-.226.574.793.793 0 01-.582.223H.651zm28.256.319c-2.046 0-3.801-.298-5.266-.893-1.464-.594-2.573-1.37-3.327-2.325-.732-.977-1.12-2.04-1.163-3.186 0-.17.065-.319.194-.446a.716.716 0 01.517-.223h4.07c.259 0 .463.053.614.16.172.084.345.222.517.413.28.553.732 1.01 1.357 1.37.624.361 1.453.542 2.487.542 1.228 0 2.164-.191 2.81-.574.646-.382.97-.902.97-1.56 0-.468-.173-.85-.517-1.148-.323-.297-.84-.562-1.55-.796-.712-.234-1.767-.5-3.167-.796-2.584-.532-4.522-1.307-5.814-2.326-1.271-1.04-1.906-2.517-1.906-4.428 0-1.296.366-2.454 1.098-3.473.732-1.02 1.777-1.816 3.134-2.39 1.356-.573 2.94-.86 4.748-.86 1.874 0 3.5.319 4.878.956 1.378.637 2.423 1.444 3.134 2.421.732.956 1.12 1.901 1.163 2.836a.658.658 0 01-.678.669h-4.265c-.258 0-.474-.043-.646-.128a1.288 1.288 0 01-.42-.414c-.13-.488-.485-.902-1.066-1.242-.56-.34-1.26-.51-2.1-.51-.969 0-1.712.17-2.229.51-.517.34-.775.839-.775 1.497 0 .446.14.818.42 1.115.301.297.775.574 1.421.828.668.234 1.615.478 2.843.733 2.003.361 3.597.818 4.781 1.37 1.206.531 2.089 1.232 2.649 2.103.56.85.84 1.922.84 3.218 0 1.422-.42 2.665-1.26 3.727-.818 1.04-1.97 1.848-3.457 2.421-1.464.552-3.144.828-5.039.828zm11.037-.32a.778.778 0 01-.517-.19.717.717 0 01-.194-.478c0-.149.043-.276.13-.383l7.042-10.322-6.526-9.876a.838.838 0 01-.097-.382c0-.17.065-.319.194-.446a.612.612 0 01.485-.223h4.684c.258 0 .474.064.646.191.172.128.334.287.484.478l3.845 5.766 3.908-5.766c.28-.446.657-.669 1.131-.669h4.458c.172 0 .323.074.452.223a.57.57 0 01.226.446.587.587 0 01-.129.382l-6.557 9.845 7.106 10.354c.065.085.097.212.097.382s-.064.33-.194.478a.66.66 0 01-.484.19H55.32c-.453 0-.83-.212-1.131-.636l-4.264-6.117-4.232 6.117c-.237.425-.603.637-1.098.637h-4.652z"/>
    <path fill="#CFD2DE" d="M21.616 100.637c-6.503 0-11.672-1.401-15.506-4.205-3.833-2.846-5.879-7.2-6.137-13.062-.044-1.147-.065-3.016-.065-5.607 0-2.634.021-4.545.065-5.735.258-5.692 2.347-9.982 6.267-12.87 3.92-2.931 9.045-4.397 15.376-4.397 3.877 0 7.43.574 10.66 1.72 3.274 1.147 5.923 2.953 7.948 5.416 2.067 2.422 3.122 5.48 3.165 9.176 0 .382-.15.722-.452 1.02a1.324 1.324 0 01-.969.381h-13.18c-.69 0-1.206-.127-1.55-.382-.302-.255-.582-.743-.84-1.465-.474-1.275-1.099-2.167-1.874-2.676-.776-.51-1.766-.765-2.972-.765-1.508 0-2.67.403-3.49 1.21-.818.765-1.248 2.082-1.291 3.951-.043 1.147-.065 2.91-.065 5.288 0 2.38.022 4.185.065 5.416.043 1.87.473 3.207 1.292 4.015.818.764 1.981 1.147 3.489 1.147 2.455 0 4.07-1.147 4.845-3.441.216-.722.474-1.21.776-1.466.344-.255.883-.382 1.615-.382h13.18c.388 0 .71.149.97.446a1.2 1.2 0 01.451.956c-.043 3.695-1.098 6.775-3.165 9.239-2.025 2.42-4.674 4.205-7.947 5.352-3.23 1.147-6.784 1.72-10.66 1.72zM50.263 100c-.473 0-.883-.17-1.227-.51a1.643 1.643 0 01-.517-1.21V57.119c0-.468.172-.871.517-1.21.344-.34.754-.51 1.227-.51h19.125c6.202 0 11.048 1.38 14.536 4.14 3.49 2.72 5.234 6.5 5.234 11.343 0 2.76-.625 5.203-1.874 7.327-1.25 2.081-2.95 3.802-5.104 5.161l7.947 14.527c.129.255.194.489.194.701 0 .383-.151.722-.453 1.02a1.324 1.324 0 01-.969.382H75.654c-.775 0-1.4-.17-1.873-.51-.43-.382-.732-.785-.905-1.21L67.32 86.11h-2.649v12.17c0 .467-.172.87-.517 1.21-.344.34-.753.51-1.227.51H50.263zm19.125-25.996c.947 0 1.68-.298 2.196-.892.517-.638.775-1.423.775-2.358 0-.934-.258-1.742-.775-2.421-.474-.722-1.206-1.083-2.197-1.083h-4.716v6.754h4.716zM106.24 100a1.69 1.69 0 01-1.228-.51 1.645 1.645 0 01-.517-1.21V85.728L89.96 57.374a1.25 1.25 0 01-.13-.574c0-.382.13-.7.388-.956.301-.297.646-.446 1.034-.446h12.146c.732 0 1.314.191 1.744.574.474.34.797.68.97 1.02l6.46 12.806 6.461-12.807c.173-.34.474-.68.905-1.02.474-.381 1.077-.573 1.809-.573h12.146c.388 0 .711.149.969.446a1.2 1.2 0 01.453.956c0 .213-.044.404-.13.574l-14.537 28.354V98.28c0 .467-.172.87-.516 1.21a1.69 1.69 0 01-1.228.51h-12.663zm34.563 0a1.69 1.69 0 01-1.228-.51 1.641 1.641 0 01-.517-1.21V57.119c0-.468.172-.871.517-1.21a1.69 1.69 0 011.228-.51h19.576c6.03 0 10.768 1.316 14.214 3.95 3.489 2.633 5.233 6.52 5.233 11.66 0 5.097-1.723 8.9-5.169 11.405-3.445 2.464-8.205 3.696-14.278 3.696h-4.523v12.17c0 .467-.172.87-.517 1.21-.344.34-.753.51-1.227.51h-13.309zm19.253-25.678c.775 0 1.464-.276 2.067-.828.603-.595.905-1.466.905-2.612 0-.978-.237-1.827-.711-2.55-.474-.721-1.227-1.082-2.261-1.082h-4.523v7.072h4.523zM196.372 100c-.474 0-.883-.17-1.227-.51a1.641 1.641 0 01-.517-1.21V69.097h-10.725a1.69 1.69 0 01-1.228-.51 1.645 1.645 0 01-.517-1.21V57.12c0-.468.173-.871.517-1.21a1.69 1.69 0 011.228-.51h37.86c.474 0 .883.17 1.228.51.344.339.517.742.517 1.21v10.258c0 .467-.173.87-.517 1.21a1.69 1.69 0 01-1.228.51h-10.725V98.28c0 .467-.172.87-.517 1.21-.344.34-.753.51-1.227.51h-12.922zm51.751.637c-6.461 0-11.608-1.465-15.442-4.396-3.833-2.931-5.879-7.2-6.138-12.807-.043-1.147-.064-2.995-.064-5.544 0-2.59.021-4.481.064-5.67.13-3.653 1.099-6.797 2.908-9.43 1.852-2.634 4.372-4.63 7.559-5.99 3.187-1.36 6.891-2.039 11.113-2.039 4.221 0 7.925.68 11.112 2.04 3.188 1.358 5.686 3.355 7.495 5.988 1.852 2.634 2.843 5.778 2.972 9.43a165.4 165.4 0 01.129 5.671c0 1.402-.043 3.25-.129 5.544-.259 5.607-2.305 9.876-6.138 12.807-3.834 2.93-8.981 4.396-15.441 4.396zm0-12.424c1.464 0 2.605-.425 3.424-1.275.861-.85 1.313-2.145 1.357-3.887.086-2.463.129-4.269.129-5.416 0-1.231-.043-2.994-.129-5.288-.044-1.742-.496-3.037-1.357-3.887-.862-.85-2.003-1.274-3.424-1.274-1.422 0-2.563.425-3.425 1.274-.861.85-1.313 2.145-1.356 3.887-.044 1.147-.065 2.91-.065 5.288 0 2.38.021 4.185.065 5.416.043 1.742.473 3.038 1.292 3.887.861.85 2.024 1.275 3.489 1.275z"/>
  </g>
  <defs>
    <clipPath id="clip0">
      <path fill="#fff" d="M0 0h354v100H0z" transform="translate(-76)"/>
    </clipPath>
    <filter id="filter0_i" width="21.886" height="26.903" x="39.038" y="30.916" color-interpolation-filters="sRGB" filterUnits="userSpaceOnUse">
      <feFlood flood-opacity="0" result="BackgroundImageFix"/>
      <feBlend in="SourceGraphic" in2="BackgroundImageFix" result="shape"/>
      <feColorMatrix in="SourceAlpha" result="hardAlpha" values="0 0 0 0 0 0 0 0 0 0 0 0 0 0 0 0 0 0 127 0"/>
      <feOffset dy="4"/>
      <feGaussianBlur stdDeviation="2"/>
      <feComposite in2="hardAlpha" k2="-1" k3="1" operator="arithmetic"/>
      <feColorMatrix values="0 0 0 0 0 0 0 0 0 0 0 0 0 0 0 0 0 0 0.25 0"/>
      <feBlend in2="shape" result="effect1_innerShadow"/>
    </filter>
  </defs>
</svg>
